<svg width="115" height="26" viewBox="0 0 115 26" fill="none" xmlns="http://www.w3.org/2000/svg">
<rect y="0.641785" width="115" height="25" rx="10" fill="#FF6060"/>
<path d="M27.446 18.2078C27.25 18.3758 27.0073 18.5065 26.718 18.5998C26.4287 18.6838 26.13 18.7258 25.822 18.7258C25.0753 18.7258 24.4967 18.5251 24.086 18.1238C23.6753 17.7225 23.47 17.1485 23.47 16.4018V12.3278H22.21V11.2218H23.47V9.59778H24.814V11.2218H26.942V12.3278H24.814V16.3458C24.814 16.7471 24.912 17.0551 25.108 17.2698C25.3133 17.4845 25.6027 17.5918 25.976 17.5918C26.3867 17.5918 26.7367 17.4751 27.026 17.2418L27.446 18.2078ZM31.7729 11.1518C32.7995 11.1518 33.5835 11.4038 34.1249 11.9078C34.6755 12.4118 34.9509 13.1631 34.9509 14.1618V18.6418H33.6769V17.6618C33.4529 18.0071 33.1309 18.2731 32.7109 18.4598C32.3002 18.6371 31.8102 18.7258 31.2409 18.7258C30.4102 18.7258 29.7429 18.5251 29.2389 18.1238C28.7442 17.7225 28.4969 17.1951 28.4969 16.5418C28.4969 15.8885 28.7349 15.3658 29.2109 14.9738C29.6869 14.5725 30.4429 14.3718 31.4789 14.3718H33.6069V14.1058C33.6069 13.5271 33.4389 13.0838 33.1029 12.7758C32.7669 12.4678 32.2722 12.3138 31.6189 12.3138C31.1802 12.3138 30.7509 12.3885 30.3309 12.5378C29.9109 12.6778 29.5562 12.8691 29.2669 13.1118L28.7069 12.1038C29.0895 11.7958 29.5469 11.5625 30.0789 11.4038C30.6109 11.2358 31.1755 11.1518 31.7729 11.1518ZM31.4649 17.6898C31.9782 17.6898 32.4215 17.5778 32.7949 17.3538C33.1682 17.1205 33.4389 16.7938 33.6069 16.3738V15.3378H31.5349C30.3962 15.3378 29.8269 15.7205 29.8269 16.4858C29.8269 16.8591 29.9715 17.1531 30.2609 17.3678C30.5502 17.5825 30.9515 17.6898 31.4649 17.6898ZM44.5771 11.2218V17.6338C44.5771 18.9311 44.2551 19.8878 43.6111 20.5038C42.9671 21.1291 42.0057 21.4418 40.7271 21.4418C40.0271 21.4418 39.3597 21.3438 38.7251 21.1478C38.0904 20.9611 37.5771 20.6905 37.1851 20.3358L37.8291 19.2998C38.1744 19.5985 38.5991 19.8318 39.1031 19.9998C39.6164 20.1771 40.1437 20.2658 40.6851 20.2658C41.5531 20.2658 42.1924 20.0605 42.6031 19.6498C43.0231 19.2391 43.2331 18.6138 43.2331 17.7738V17.1858C42.9157 17.5685 42.5237 17.8578 42.0571 18.0538C41.5997 18.2405 41.1004 18.3338 40.5591 18.3338C39.8497 18.3338 39.2057 18.1845 38.6271 17.8858C38.0577 17.5778 37.6097 17.1531 37.2831 16.6118C36.9564 16.0611 36.7931 15.4358 36.7931 14.7358C36.7931 14.0358 36.9564 13.4151 37.2831 12.8738C37.6097 12.3231 38.0577 11.8985 38.6271 11.5998C39.2057 11.3011 39.8497 11.1518 40.5591 11.1518C41.1191 11.1518 41.6371 11.2545 42.1131 11.4598C42.5984 11.6651 42.9951 11.9685 43.3031 12.3698V11.2218H44.5771ZM40.7131 17.1578C41.1984 17.1578 41.6324 17.0551 42.0151 16.8498C42.4071 16.6445 42.7104 16.3598 42.9251 15.9958C43.1491 15.6225 43.2611 15.2025 43.2611 14.7358C43.2611 14.0171 43.0231 13.4385 42.5471 12.9998C42.0711 12.5518 41.4597 12.3278 40.7131 12.3278C39.9571 12.3278 39.3411 12.5518 38.8651 12.9998C38.3891 13.4385 38.1511 14.0171 38.1511 14.7358C38.1511 15.2025 38.2584 15.6225 38.4731 15.9958C38.6971 16.3598 39.0004 16.6445 39.3831 16.8498C39.7751 17.0551 40.2184 17.1578 40.7131 17.1578ZM46.6691 14.2178H50.4351V15.3798H46.6691V14.2178ZM56.4665 11.1518C57.4091 11.1518 58.1558 11.4271 58.7065 11.9778C59.2665 12.5191 59.5465 13.3171 59.5465 14.3718V18.6418H58.2025V14.5258C58.2025 13.8071 58.0298 13.2658 57.6845 12.9018C57.3391 12.5378 56.8445 12.3558 56.2005 12.3558C55.4725 12.3558 54.8985 12.5705 54.4785 12.9998C54.0585 13.4198 53.8485 14.0265 53.8485 14.8198V18.6418H52.5045V11.2218H53.7925V12.3418C54.0631 11.9591 54.4271 11.6651 54.8845 11.4598C55.3511 11.2545 55.8785 11.1518 56.4665 11.1518ZM64.7358 11.1518C65.7624 11.1518 66.5464 11.4038 67.0878 11.9078C67.6384 12.4118 67.9138 13.1631 67.9138 14.1618V18.6418H66.6398V17.6618C66.4158 18.0071 66.0938 18.2731 65.6738 18.4598C65.2631 18.6371 64.7731 18.7258 64.2038 18.7258C63.3731 18.7258 62.7058 18.5251 62.2018 18.1238C61.7071 17.7225 61.4598 17.1951 61.4598 16.5418C61.4598 15.8885 61.6978 15.3658 62.1738 14.9738C62.6498 14.5725 63.4058 14.3718 64.4418 14.3718H66.5698V14.1058C66.5698 13.5271 66.4018 13.0838 66.0658 12.7758C65.7298 12.4678 65.2351 12.3138 64.5818 12.3138C64.1431 12.3138 63.7138 12.3885 63.2938 12.5378C62.8738 12.6778 62.5191 12.8691 62.2298 13.1118L61.6698 12.1038C62.0524 11.7958 62.5098 11.5625 63.0418 11.4038C63.5738 11.2358 64.1384 11.1518 64.7358 11.1518ZM64.4278 17.6898C64.9411 17.6898 65.3844 17.5778 65.7578 17.3538C66.1311 17.1205 66.4018 16.7938 66.5698 16.3738V15.3378H64.4978C63.3591 15.3378 62.7898 15.7205 62.7898 16.4858C62.7898 16.8591 62.9344 17.1531 63.2238 17.3678C63.5131 17.5825 63.9144 17.6898 64.4278 17.6898ZM79.683 11.1518C80.6163 11.1518 81.3536 11.4225 81.895 11.9638C82.4456 12.5051 82.721 13.3078 82.721 14.3718V18.6418H81.377V14.5258C81.377 13.8071 81.209 13.2658 80.873 12.9018C80.5463 12.5378 80.075 12.3558 79.459 12.3558C78.7776 12.3558 78.2363 12.5705 77.835 12.9998C77.4336 13.4198 77.233 14.0265 77.233 14.8198V18.6418H75.889V14.5258C75.889 13.8071 75.721 13.2658 75.385 12.9018C75.0583 12.5378 74.587 12.3558 73.971 12.3558C73.2896 12.3558 72.7483 12.5705 72.347 12.9998C71.9456 13.4198 71.745 14.0265 71.745 14.8198V18.6418H70.401V11.2218H71.689V12.3278C71.9596 11.9451 72.3143 11.6558 72.753 11.4598C73.1916 11.2545 73.691 11.1518 74.251 11.1518C74.8296 11.1518 75.343 11.2685 75.791 11.5018C76.239 11.7351 76.5843 12.0758 76.827 12.5238C77.107 12.0945 77.4943 11.7585 77.989 11.5158C78.493 11.2731 79.0576 11.1518 79.683 11.1518ZM91.9409 14.9738C91.9409 15.0765 91.9316 15.2118 91.9129 15.3798H85.8929C85.9769 16.0331 86.2616 16.5605 86.7469 16.9618C87.2416 17.3538 87.8529 17.5498 88.5809 17.5498C89.4676 17.5498 90.1816 17.2511 90.7229 16.6538L91.4649 17.5218C91.1289 17.9138 90.7089 18.2125 90.2049 18.4178C89.7103 18.6231 89.1549 18.7258 88.5389 18.7258C87.7549 18.7258 87.0596 18.5671 86.4529 18.2498C85.8463 17.9231 85.3749 17.4705 85.0389 16.8918C84.7123 16.3131 84.5489 15.6598 84.5489 14.9318C84.5489 14.2131 84.7076 13.5645 85.0249 12.9858C85.3516 12.4071 85.7949 11.9591 86.3549 11.6418C86.9243 11.3151 87.5636 11.1518 88.2729 11.1518C88.9823 11.1518 89.6123 11.3151 90.1629 11.6418C90.7229 11.9591 91.1569 12.4071 91.4649 12.9858C91.7823 13.5645 91.9409 14.2271 91.9409 14.9738ZM88.2729 12.2858C87.6289 12.2858 87.0876 12.4818 86.6489 12.8738C86.2196 13.2658 85.9676 13.7791 85.8929 14.4138H90.6529C90.5783 13.7885 90.3216 13.2798 89.8829 12.8878C89.4536 12.4865 88.9169 12.2858 88.2729 12.2858Z" fill="white"/>
</svg>
